<mxfile host="app.diagrams.net" modified="2023-04-28T05:05:32.338Z" agent="Mozilla/5.0 (Windows NT 10.0; Win64; x64) AppleWebKit/537.36 (KHTML, like Gecko) Chrome/112.0.0.0 Safari/537.36" etag="ACkm85hsiIrN1NNjnybL" version="21.1.5" type="device">
  <diagram name="Page-1" id="Y7TKLXwI_bl7Z9Aop0Ul">
    <mxGraphModel dx="1900" dy="587" grid="1" gridSize="10" guides="1" tooltips="1" connect="1" arrows="1" fold="1" page="1" pageScale="1" pageWidth="850" pageHeight="1100" math="0" shadow="0">
      <root>
        <mxCell id="0" />
        <mxCell id="1" parent="0" />
        <mxCell id="jriBZh1JzAvColfXbVa_-1" value="DATABASE" style="verticalAlign=top;align=left;spacingTop=8;spacingLeft=2;spacingRight=12;shape=cube;size=10;direction=south;fontStyle=4;html=1;whiteSpace=wrap;" vertex="1" parent="1">
          <mxGeometry x="40" y="197" width="180" height="120" as="geometry" />
        </mxCell>
        <mxCell id="jriBZh1JzAvColfXbVa_-2" value="" style="text;strokeColor=none;fillColor=none;align=left;verticalAlign=middle;spacingTop=-1;spacingLeft=4;spacingRight=4;rotatable=0;labelPosition=right;points=[];portConstraint=eastwest;" vertex="1" parent="1">
          <mxGeometry x="410" y="300" width="20" height="14" as="geometry" />
        </mxCell>
        <mxCell id="jriBZh1JzAvColfXbVa_-3" value="User Database" style="text;strokeColor=none;fillColor=none;align=left;verticalAlign=middle;spacingTop=-1;spacingLeft=4;spacingRight=4;rotatable=0;labelPosition=right;points=[];portConstraint=eastwest;" vertex="1" parent="1">
          <mxGeometry x="-20" y="230" width="60" height="14" as="geometry" />
        </mxCell>
        <mxCell id="jriBZh1JzAvColfXbVa_-5" value="Inventory Databse" style="text;strokeColor=none;fillColor=none;align=left;verticalAlign=middle;spacingTop=-1;spacingLeft=4;spacingRight=4;rotatable=0;labelPosition=right;points=[];portConstraint=eastwest;" vertex="1" parent="1">
          <mxGeometry x="-20" y="250" width="60" height="14" as="geometry" />
        </mxCell>
        <mxCell id="jriBZh1JzAvColfXbVa_-6" value="PC Admin&amp;nbsp;" style="verticalAlign=top;align=left;spacingTop=8;spacingLeft=2;spacingRight=12;shape=cube;size=10;direction=south;fontStyle=4;html=1;whiteSpace=wrap;" vertex="1" parent="1">
          <mxGeometry x="330" y="40" width="180" height="120" as="geometry" />
        </mxCell>
        <mxCell id="jriBZh1JzAvColfXbVa_-8" value="" style="endArrow=none;html=1;rounded=0;exitX=0;exitY=0;exitDx=0;exitDy=0;exitPerimeter=0;entryX=1;entryY=1;entryDx=0;entryDy=0;entryPerimeter=0;" edge="1" parent="1" source="jriBZh1JzAvColfXbVa_-1" target="jriBZh1JzAvColfXbVa_-6">
          <mxGeometry width="50" height="50" relative="1" as="geometry">
            <mxPoint x="220" y="170" as="sourcePoint" />
            <mxPoint x="270" y="120" as="targetPoint" />
          </mxGeometry>
        </mxCell>
        <mxCell id="jriBZh1JzAvColfXbVa_-10" value="View Inventory" style="text;html=1;strokeColor=none;fillColor=none;align=center;verticalAlign=middle;whiteSpace=wrap;rounded=0;" vertex="1" parent="1">
          <mxGeometry x="315" y="70" width="110" height="30" as="geometry" />
        </mxCell>
        <mxCell id="jriBZh1JzAvColfXbVa_-11" value="Purchase Stock" style="text;html=1;strokeColor=none;fillColor=none;align=center;verticalAlign=middle;whiteSpace=wrap;rounded=0;" vertex="1" parent="1">
          <mxGeometry x="320" y="90" width="110" height="30" as="geometry" />
        </mxCell>
        <mxCell id="jriBZh1JzAvColfXbVa_-12" value="Payment" style="text;html=1;strokeColor=none;fillColor=none;align=center;verticalAlign=middle;whiteSpace=wrap;rounded=0;" vertex="1" parent="1">
          <mxGeometry x="300" y="110" width="110" height="30" as="geometry" />
        </mxCell>
        <mxCell id="jriBZh1JzAvColfXbVa_-13" value="PC Warehouse" style="verticalAlign=top;align=left;spacingTop=8;spacingLeft=2;spacingRight=12;shape=cube;size=10;direction=south;fontStyle=4;html=1;whiteSpace=wrap;" vertex="1" parent="1">
          <mxGeometry x="335" y="320" width="180" height="120" as="geometry" />
        </mxCell>
        <mxCell id="jriBZh1JzAvColfXbVa_-14" value="View Inventory" style="text;html=1;strokeColor=none;fillColor=none;align=center;verticalAlign=middle;whiteSpace=wrap;rounded=0;" vertex="1" parent="1">
          <mxGeometry x="335" y="350" width="100" height="30" as="geometry" />
        </mxCell>
        <mxCell id="jriBZh1JzAvColfXbVa_-15" value="Request Stock" style="text;html=1;strokeColor=none;fillColor=none;align=center;verticalAlign=middle;whiteSpace=wrap;rounded=0;" vertex="1" parent="1">
          <mxGeometry x="335" y="370" width="100" height="30" as="geometry" />
        </mxCell>
        <mxCell id="jriBZh1JzAvColfXbVa_-18" value="" style="endArrow=none;html=1;rounded=0;exitX=0;exitY=0;exitDx=120;exitDy=10;exitPerimeter=0;entryX=1;entryY=1;entryDx=0;entryDy=0;entryPerimeter=0;" edge="1" parent="1" source="jriBZh1JzAvColfXbVa_-1" target="jriBZh1JzAvColfXbVa_-13">
          <mxGeometry width="50" height="50" relative="1" as="geometry">
            <mxPoint x="200" y="420" as="sourcePoint" />
            <mxPoint x="250" y="370" as="targetPoint" />
          </mxGeometry>
        </mxCell>
        <mxCell id="jriBZh1JzAvColfXbVa_-19" value="" style="endArrow=none;html=1;rounded=0;exitX=0;exitY=0;exitDx=120;exitDy=10;exitPerimeter=0;entryX=0;entryY=0;entryDx=0;entryDy=85;entryPerimeter=0;" edge="1" parent="1" target="jriBZh1JzAvColfXbVa_-13">
          <mxGeometry width="50" height="50" relative="1" as="geometry">
            <mxPoint x="410" y="160" as="sourcePoint" />
            <mxPoint x="535" y="283" as="targetPoint" />
          </mxGeometry>
        </mxCell>
      </root>
    </mxGraphModel>
  </diagram>
</mxfile>
